{
  "asset": {
    "version": "2.0",
    "generator": "3dpea GLTFExporter"
  },
  "scenes": [
    {
      "name": "AuxScene",
      "nodes": [
        8
      ]
    }
  ],
  "scene": 0,
  "nodes": [
    {
      "matrix": [
        1.3917908052756749e-16,
        -1.2536137104034424,
        6.958954026378374e-17,
        0,
        3.7416706357069375e-16,
        0,
        -6.740394592285156,
        0,
        1.7305229902267456,
        9.606332341964539e-17,
        1.9212664683929077e-16,
        0,
        0,
        1.309747338294983,
        0,
        1
      ],
      "name": "Cylinder",
      "extras": {
        "name": "Cylinder"
      },
      "mesh": 0
    },
    {
      "matrix": [
        0,
        -1.2536137104034424,
        0,
        0,
        0,
        0,
        -4.237888813018799,
        0,
        1.3086122274398804,
        0,
        0,
        0,
        0,
        1.309747338294983,
        0,
        1
      ],
      "name": "Cylinder001",
      "extras": {
        "name": "Cylinder.001"
      },
      "mesh": 1
    },
    {
      "matrix": [
        1.3917908052756749e-16,
        -1.2536137104034424,
        6.958954026378374e-17,
        0,
        3.7416706357069375e-16,
        0,
        -6.740394592285156,
        0,
        1.7305229902267456,
        9.606332341964539e-17,
        1.9212664683929077e-16,
        0,
        0,
        1.309747338294983,
        0,
        1
      ],
      "name": "Cylinder002",
      "extras": {
        "name": "Cylinder.002"
      },
      "mesh": 2
    },
    {
      "name": "BoatBetter(1)glb",
      "extras": {
        "name": "BoatBetter(1).glb"
      },
      "children": [
        0,
        1,
        2
      ]
    },
    {
      "name": "Group",
      "extras": {
        "name": "Group"
      }
    },
    {
      "matrix": [
        1,
        0,
        0,
        0,
        0,
        1,
        0,
        0,
        0,
        0,
        1,
        0,
        0,
        0,
        -1,
        1
      ]
    },
    {
      "matrix": [
        1,
        0,
        0,
        0,
        0,
        1,
        0,
        0,
        0,
        0,
        1,
        0,
        -31.261991454281855,
        16.0300318897541,
        11.230431996392014,
        1
      ],
      "name": "DirectionalLight",
      "extras": {
        "name": "DirectionalLight"
      },
      "children": [
        5
      ],
      "extensions": {
        "KHR_lights_punctual": {
          "light": 0
        }
      }
    },
    {
      "matrix": [
        1,
        0,
        0,
        0,
        0,
        1,
        0,
        0,
        0,
        0,
        1,
        0,
        0,
        0.5,
        0,
        1
      ],
      "name": "Box",
      "extras": {
        "name": "Box"
      },
      "mesh": 3
    },
    {
      "name": "scene(3)",
      "extras": {
        "additionalData": []
      },
      "children": [
        3,
        4,
        6,
        7
      ]
    }
  ],
  "bufferViews": [
    {
      "buffer": 0,
      "byteOffset": 0,
      "byteLength": 2388,
      "target": 34962,
      "byteStride": 12
    },
    {
      "buffer": 0,
      "byteOffset": 2388,
      "byteLength": 2388,
      "target": 34962,
      "byteStride": 12
    },
    {
      "buffer": 0,
      "byteOffset": 4776,
      "byteLength": 1592,
      "target": 34962,
      "byteStride": 8
    },
    {
      "buffer": 0,
      "byteOffset": 6368,
      "byteLength": 2364,
      "target": 34963
    },
    {
      "buffer": 0,
      "byteOffset": 8732,
      "byteLength": 6552,
      "target": 34962,
      "byteStride": 12
    },
    {
      "buffer": 0,
      "byteOffset": 15284,
      "byteLength": 6552,
      "target": 34962,
      "byteStride": 12
    },
    {
      "buffer": 0,
      "byteOffset": 21836,
      "byteLength": 4368,
      "target": 34962,
      "byteStride": 8
    },
    {
      "buffer": 0,
      "byteOffset": 26204,
      "byteLength": 1716,
      "target": 34963
    },
    {
      "buffer": 0,
      "byteOffset": 27920,
      "byteLength": 9120,
      "target": 34962,
      "byteStride": 12
    },
    {
      "buffer": 0,
      "byteOffset": 37040,
      "byteLength": 9120,
      "target": 34962,
      "byteStride": 12
    },
    {
      "buffer": 0,
      "byteOffset": 46160,
      "byteLength": 6080,
      "target": 34962,
      "byteStride": 8
    },
    {
      "buffer": 0,
      "byteOffset": 52240,
      "byteLength": 2364,
      "target": 34963
    },
    {
      "buffer": 0,
      "byteOffset": 54604,
      "byteLength": 288,
      "target": 34962,
      "byteStride": 12
    },
    {
      "buffer": 0,
      "byteOffset": 54892,
      "byteLength": 288,
      "target": 34962,
      "byteStride": 12
    },
    {
      "buffer": 0,
      "byteOffset": 55180,
      "byteLength": 192,
      "target": 34962,
      "byteStride": 8
    },
    {
      "buffer": 0,
      "byteOffset": 55372,
      "byteLength": 72,
      "target": 34963
    }
  ],
  "buffers": [
    {
      "byteLength": 55444,
      "uri": "data:application/octet-stream;base64,"
    }
  ],
  "accessors": [
    {
      "bufferView": 0,
      "componentType": 5126,
      "count": 199,
      "max": [
        1.410863995552063,
        1.0164910554885864,
        0.8807462453842163
      ],
      "min": [
        -1.2269707918167114,
        -0.9579435586929321,
        -0.8807463049888611
      ],
      "type": "VEC3"
    },
    {
      "bufferView": 1,
      "componentType": 5126,
      "count": 199,
      "max": [
        0.9999946355819702,
        0.9866407513618469,
        0.9949142932891846
      ],
      "min": [
        -0.9213814735412598,
        -0.9978833794593811,
        -0.9949142932891846
      ],
      "type": "VEC3"
    },
    {
      "bufferView": 2,
      "componentType": 5126,
      "count": 199,
      "max": [
        1,
        0.5
      ],
      "min": [
        0.5,
        0
      ],
      "type": "VEC2"
    },
    {
      "bufferView": 3,
      "componentType": 5123,
      "count": 1182,
      "max": [
        198
      ],
      "min": [
        0
      ],
      "type": "SCALAR"
    },
    {
      "bufferView": 4,
      "componentType": 5126,
      "count": 546,
      "max": [
        1.410863995552063,
        1,
        0.8807462453842163
      ],
      "min": [
        -0.4550018906593323,
        -1,
        -0.8807463049888611
      ],
      "type": "VEC3"
    },
    {
      "bufferView": 5,
      "componentType": 5126,
      "count": 546,
      "max": [
        0.9679230451583862,
        1,
        0.9983438849449158
      ],
      "min": [
        0,
        -1,
        -0.9983438849449158
      ],
      "type": "VEC3"
    },
    {
      "bufferView": 6,
      "componentType": 5126,
      "count": 546,
      "max": [
        1,
        0.5
      ],
      "min": [
        0.5,
        0
      ],
      "type": "VEC2"
    },
    {
      "bufferView": 7,
      "componentType": 5123,
      "count": 858,
      "max": [
        545
      ],
      "min": [
        0
      ],
      "type": "SCALAR"
    },
    {
      "bufferView": 8,
      "componentType": 5126,
      "count": 760,
      "max": [
        1.410863995552063,
        1.0164910554885864,
        0.8807462453842163
      ],
      "min": [
        -1.2269707918167114,
        -0.9579435586929321,
        -0.8807463049888611
      ],
      "type": "VEC3"
    },
    {
      "bufferView": 9,
      "componentType": 5126,
      "count": 760,
      "max": [
        0.9679230451583862,
        1,
        0.9997490644454956
      ],
      "min": [
        -0.9999595880508423,
        -1,
        -0.9997490644454956
      ],
      "type": "VEC3"
    },
    {
      "bufferView": 10,
      "componentType": 5126,
      "count": 760,
      "max": [
        1,
        0.5
      ],
      "min": [
        0.5,
        0
      ],
      "type": "VEC2"
    },
    {
      "bufferView": 11,
      "componentType": 5123,
      "count": 1182,
      "max": [
        759
      ],
      "min": [
        0
      ],
      "type": "SCALAR"
    },
    {
      "bufferView": 12,
      "componentType": 5126,
      "count": 24,
      "max": [
        0.5,
        0.5,
        0.5
      ],
      "min": [
        -0.5,
        -0.5,
        -0.5
      ],
      "type": "VEC3"
    },
    {
      "bufferView": 13,
      "componentType": 5126,
      "count": 24,
      "max": [
        1,
        1,
        1
      ],
      "min": [
        -1,
        -1,
        -1
      ],
      "type": "VEC3"
    },
    {
      "bufferView": 14,
      "componentType": 5126,
      "count": 24,
      "max": [
        1,
        1
      ],
      "min": [
        0,
        0
      ],
      "type": "VEC2"
    },
    {
      "bufferView": 15,
      "componentType": 5123,
      "count": 36,
      "max": [
        23
      ],
      "min": [
        0
      ],
      "type": "SCALAR"
    }
  ],
  "materials": [
    {
      "pbrMetallicRoughness": {
        "baseColorFactor": [
          1,
          0,
          0,
          1
        ],
        "metallicFactor": 1,
        "roughnessFactor": 1
      },
      "name": "Mat_1"
    },
    {
      "pbrMetallicRoughness": {
        "baseColorFactor": [
          1,
          0,
          0,
          1
        ],
        "metallicFactor": 1,
        "roughnessFactor": 1
      },
      "name": "Mat_2"
    },
    {
      "pbrMetallicRoughness": {
        "baseColorFactor": [
          1,
          0,
          0,
          1
        ],
        "metallicFactor": 1,
        "roughnessFactor": 1
      },
      "name": "Mat_3"
    },
    {
      "pbrMetallicRoughness": {
        "metallicFactor": 0,
        "roughnessFactor": 1
      },
      "name": "Mat_4"
    }
  ],
  "meshes": [
    {
      "primitives": [
        {
          "mode": 4,
          "attributes": {
            "POSITION": 0,
            "NORMAL": 1,
            "TEXCOORD_0": 2
          },
          "indices": 3,
          "material": 0
        }
      ]
    },
    {
      "primitives": [
        {
          "mode": 4,
          "attributes": {
            "POSITION": 4,
            "NORMAL": 5,
            "TEXCOORD_0": 6
          },
          "indices": 7,
          "material": 1
        }
      ]
    },
    {
      "primitives": [
        {
          "mode": 4,
          "attributes": {
            "POSITION": 8,
            "NORMAL": 9,
            "TEXCOORD_0": 10
          },
          "indices": 11,
          "material": 2
        }
      ]
    },
    {
      "primitives": [
        {
          "mode": 4,
          "attributes": {
            "POSITION": 12,
            "NORMAL": 13,
            "TEXCOORD_0": 14
          },
          "indices": 15,
          "material": 3
        }
      ]
    }
  ],
  "extensions": {
    "KHR_lights_punctual": {
      "lights": [
        {
          "name": "DirectionalLight",
          "color": [
            1,
            1,
            1
          ],
          "intensity": 1,
          "type": "directional"
        }
      ]
    }
  },
  "extensionsUsed": [
    "KHR_lights_punctual"
  ]
}