{
	"asset":{
		"generator":"Khronos glTF Blender I/O v4.3.47",
		"version":"2.0"
	},
	"scene":0,
	"scenes":[
		{
			"name":"Scene",
			"nodes":[
				0,
				1,
				2
			]
		}
	],
	"nodes":[
		{
			"mesh":0,
			"name":"Cylinder",
			"rotation":[
				-0.5,
				0.5,
				-0.5,
				0.5
			],
			"scale":[
				1.2536137104034424,
				6.740394592285156,
				1.7305229902267456
			],
			"translation":[
				0,
				1.309747338294983,
				0
			]
		},
		{
			"mesh":1,
			"name":"Cylinder.001",
			"rotation":[
				-0.5,
				0.5,
				-0.5,
				0.5
			],
			"scale":[
				1.2536137104034424,
				4.237888813018799,
				1.3086122274398804
			],
			"translation":[
				0,
				1.309747338294983,
				0
			]
		},
		{
			"mesh":2,
			"name":"Cylinder.002",
			"rotation":[
				-0.5,
				0.5,
				-0.5,
				0.5
			],
			"scale":[
				1.2536137104034424,
				6.740394592285156,
				1.7305229902267456
			],
			"translation":[
				0,
				1.309747338294983,
				0
			]
		}
	],
	"meshes":[
		{
			"name":"Cylinder",
			"primitives":[
				{
					"attributes":{
						"POSITION":0,
						"NORMAL":1,
						"TEXCOORD_0":2
					},
					"indices":3
				}
			]
		},
		{
			"name":"Cylinder.002",
			"primitives":[
				{
					"attributes":{
						"POSITION":4,
						"NORMAL":5,
						"TEXCOORD_0":6
					},
					"indices":7
				}
			]
		},
		{
			"name":"Cylinder.003",
			"primitives":[
				{
					"attributes":{
						"POSITION":8,
						"NORMAL":9,
						"TEXCOORD_0":10
					},
					"indices":11
				}
			]
		}
	],
	"accessors":[
		{
			"bufferView":0,
			"componentType":5126,
			"count":199,
			"max":[
				1.410863995552063,
				1.0164910554885864,
				0.8807462453842163
			],
			"min":[
				-1.2269707918167114,
				-0.9579435586929321,
				-0.8807463049888611
			],
			"type":"VEC3"
		},
		{
			"bufferView":1,
			"componentType":5126,
			"count":199,
			"type":"VEC3"
		},
		{
			"bufferView":2,
			"componentType":5126,
			"count":199,
			"type":"VEC2"
		},
		{
			"bufferView":3,
			"componentType":5123,
			"count":1182,
			"type":"SCALAR"
		},
		{
			"bufferView":4,
			"componentType":5126,
			"count":546,
			"max":[
				1.410863995552063,
				1,
				0.8807462453842163
			],
			"min":[
				-0.4550018906593323,
				-1,
				-0.8807463049888611
			],
			"type":"VEC3"
		},
		{
			"bufferView":5,
			"componentType":5126,
			"count":546,
			"type":"VEC3"
		},
		{
			"bufferView":6,
			"componentType":5126,
			"count":546,
			"type":"VEC2"
		},
		{
			"bufferView":7,
			"componentType":5123,
			"count":858,
			"type":"SCALAR"
		},
		{
			"bufferView":8,
			"componentType":5126,
			"count":760,
			"max":[
				1.410863995552063,
				1.0164910554885864,
				0.8807462453842163
			],
			"min":[
				-1.2269707918167114,
				-0.9579435586929321,
				-0.8807463049888611
			],
			"type":"VEC3"
		},
		{
			"bufferView":9,
			"componentType":5126,
			"count":760,
			"type":"VEC3"
		},
		{
			"bufferView":10,
			"componentType":5126,
			"count":760,
			"type":"VEC2"
		},
		{
			"bufferView":11,
			"componentType":5123,
			"count":1182,
			"type":"SCALAR"
		}
	],
	"bufferViews":[
		{
			"buffer":0,
			"byteLength":2388,
			"byteOffset":0,
			"target":34962
		},
		{
			"buffer":0,
			"byteLength":2388,
			"byteOffset":2388,
			"target":34962
		},
		{
			"buffer":0,
			"byteLength":1592,
			"byteOffset":4776,
			"target":34962
		},
		{
			"buffer":0,
			"byteLength":2364,
			"byteOffset":6368,
			"target":34963
		},
		{
			"buffer":0,
			"byteLength":6552,
			"byteOffset":8732,
			"target":34962
		},
		{
			"buffer":0,
			"byteLength":6552,
			"byteOffset":15284,
			"target":34962
		},
		{
			"buffer":0,
			"byteLength":4368,
			"byteOffset":21836,
			"target":34962
		},
		{
			"buffer":0,
			"byteLength":1716,
			"byteOffset":26204,
			"target":34963
		},
		{
			"buffer":0,
			"byteLength":9120,
			"byteOffset":27920,
			"target":34962
		},
		{
			"buffer":0,
			"byteLength":9120,
			"byteOffset":37040,
			"target":34962
		},
		{
			"buffer":0,
			"byteLength":6080,
			"byteOffset":46160,
			"target":34962
		},
		{
			"buffer":0,
			"byteLength":2364,
			"byteOffset":52240,
			"target":34963
		}
	],
	"buffers":[
		{
			"byteLength":54604,
			"uri":"BoatBetter.bin"
		}
	]
}
