{"scene":0,"asset":{"generator":"ImageToStl.com","version":"2.0"},"scenes":[{"name":"Scene","nodes":[0]}],"nodes":[{"name":"Node0","children":[1]},{"name":"Node1","mesh":0}],"materials":[{"name":"x1","pbrMetallicRoughness":{"baseColorFactor":[0.85,0.85,0.85,1.0],"metallicFactor":0.05,"roughnessFactor":0.5},"doubleSided":true}],"meshes":[{"name":"Mesh0","primitives":[{"indices":2,"material":0,"attributes":{"POSITION":0,"TEXCOORD_0":1}}]}],"accessors":[{"bufferView":0,"componentType":5126,"count":1733,"type":"VEC3","min":[-37.2373,-0.0303,-195.6867],"max":[37.2373,86.1878,195.6867]},{"bufferView":1,"componentType":5126,"count":1733,"type":"VEC2"},{"bufferView":2,"componentType":5123,"count":13068,"type":"SCALAR"}],"bufferViews":[{"target":34962,"buffer":0,"byteLength":20796,"byteOffset":0},{"target":34962,"buffer":0,"byteLength":13864,"byteOffset":20796},{"target":34963,"buffer":0,"byteLength":26136,"byteOffset":34660}],"buffers":[{"byteLength":60796,"uri":"data:application/octet-stream;base64,"}]}