{"scene":0,"asset":{"generator":"ImageToStl.com","version":"2.0"},"scenes":[{"name":"Scene","nodes":[0]}],"nodes":[{"name":"Node0","children":[1]},{"name":"Node1","mesh":0}],"materials":[{"name":"blue","pbrMetallicRoughness":{"baseColorFactor":[0.0,0.0,0.0,1.0],"metallicFactor":0.0,"roughnessFactor":1.0},"doubleSided":true}],"meshes":[{"name":"Mesh0","primitives":[{"indices":1,"material":0,"attributes":{"POSITION":0}}]}],"accessors":[{"bufferView":0,"componentType":5126,"count":836,"type":"VEC3","min":[-37.2373,-195.6867,-43.10906],"max":[37.2373,195.6867,43.109055]},{"bufferView":1,"componentType":5123,"count":4356,"type":"SCALAR"}],"bufferViews":[{"target":34962,"buffer":0,"byteLength":10032,"byteOffset":0},{"target":34963,"buffer":0,"byteLength":8712,"byteOffset":10032}],"buffers":[{"byteLength":18744,"uri":"data:application/octet-stream;base64,"}]}