{
  "asset": {
    "version": "2.0",
    "generator": "3dpea GLTFExporter"
  },
  "scenes": [
    {
      "name": "AuxScene",
      "nodes": [
        1
      ]
    }
  ],
  "scene": 0,
  "nodes": [
    {
      "name": "Mesh1",
      "extras": {
        "name": "Mesh1"
      },
      "mesh": 0
    },
    {
      "name": "Create_a_simple_3d_mo_1224150625_generate",
      "extras": {
        "additionalData": []
      },
      "children": [
        0
      ]
    }
  ],
  "bufferViews": [
    {
      "buffer": 0,
      "byteOffset": 0,
      "byteLength": 166380,
      "target": 34962,
      "byteStride": 12
    },
    {
      "buffer": 0,
      "byteOffset": 166380,
      "byteLength": 166380,
      "target": 34962,
      "byteStride": 12
    },
    {
      "buffer": 0,
      "byteOffset": 332760,
      "byteLength": 337080,
      "target": 34963
    }
  ],
  "buffers": [
    {
      "byteLength": 669840,
      "uri": "data:application/octet-stream;base64,"
    }
  ],
  "accessors": [
    {
      "bufferView": 0,
      "componentType": 5126,
      "count": 13865,
      "max": [
        1,
        0.9999998807907104,
        0.9999999403953552
      ],
      "min": [
        -0.9999991655349731,
        -0.9999998211860657,
        -0.999997079372406
      ],
      "type": "VEC3"
    },
    {
      "bufferView": 1,
      "componentType": 5126,
      "count": 13865,
      "max": [
        0.20962099730968475,
        0.21263499557971954,
        0.9958170056343079
      ],
      "min": [
        -0.20803600549697876,
        -0.22393399477005005,
        -0.9841920137405396
      ],
      "type": "VEC3"
    },
    {
      "bufferView": 2,
      "componentType": 5125,
      "count": 84270,
      "max": [
        13864
      ],
      "min": [
        0
      ],
      "type": "SCALAR"
    }
  ],
  "materials": [
    {
      "pbrMetallicRoughness": {
        "metallicFactor": 1,
        "roughnessFactor": 1
      },
      "name": "Mat_1"
    }
  ],
  "meshes": [
    {
      "primitives": [
        {
          "mode": 4,
          "attributes": {
            "NORMAL": 0,
            "POSITION": 1
          },
          "indices": 2,
          "material": 0
        }
      ]
    }
  ]
}